PathFileType	4	(X/Y/Z)	C:\Git\research_data\Projects\torsion_deformities_healthy_kinematics\simulations\P01\pre\dynamic07_l\marker_experimental.trc
DataRate	CameraRate	NumFrames	NumMarkers	Units	OrigDataRate	OrigDataStartFrame	OrigNumFrames
200	200	4	34	mm	200	702	802
Frame#	Time	C7			T10			CLAV			STRN			RBAK			LASI			RASI			SACR			LT1			LT2			LT3			LS1			LS2			LS3			LHEE			LTOE			RT1			RT2			RT3			RS1			RS2			RS3			RHEE			RTOE			LKNE			LANK			RKNE			RANK			LAJC			LKJC			RAJC			RKJC			RHJC			LHJC		
		X1	Y1	Z1	X2	Y2	Z2	X3	Y3	Z3	X4	Y4	Z4	X5	Y5	Z5	X6	Y6	Z6	X7	Y7	Z7	X8	Y8	Z8	X9	Y9	Z9	X10	Y10	Z10	X11	Y11	Z11	X12	Y12	Z12	X13	Y13	Z13	X14	Y14	Z14	X15	Y15	Z15	X16	Y16	Z16	X17	Y17	Z17	X18	Y18	Z18	X19	Y19	Z19	X20	Y20	Z20	X21	Y21	Z21	X22	Y22	Z22	X23	Y23	Z23	X24	Y24	Z24	X25	Y25	Z25	X26	Y26	Z26	X27	Y27	Z27	X28	Y28	Z28	X29	Y29	Z29	X30	Y30	Z30	X31	Y31	Z31	X32	Y32	Z32	X33	Y33	Z33	X34	Y34	Z34	

702	3.505000	1836.511597	1008.710205	394.427155	1818.701416	835.168762	377.056641	1960.229004	983.861206	377.083466	2012.029907	853.261536	371.137207	1833.978760	946.274719	490.509491	1957.515259	676.250122	274.676941	1936.114258	667.363831	485.894043	1800.644653	724.635559	365.550995	1978.643555	508.393341	238.611572	1946.246582	414.135925	236.376770	2078.766357	449.787201	284.847168	2038.274048	269.514526	252.392258	1973.382812	165.721405	228.907959	2105.314697	202.036499	272.062927	2037.707031	42.308270	288.723328	2172.212891	78.917427	317.107697	1838.358032	508.775360	517.423523	1763.136353	454.508240	492.229675	1892.308472	402.395721	519.728149	1765.442871	274.695496	505.542114	1645.997192	259.197632	529.141235	1759.696167	179.077515	495.852417	1580.866089	106.426392	463.513763	1709.327759	47.411636	444.435181	2010.123413	358.918579	273.073944	2083.073975	51.889038	275.909698	1803.061768	343.107513	487.971100	1623.743164	83.434860	493.889435	2083.109131	50.844986	309.789856	2011.402466	355.431702	324.424408	1624.990845	88.113228	457.333374	1815.321777	338.901550	435.727020	1869.782237	614.385494	447.948944	1885.377380	620.861032	294.032736	
703	3.510000	1843.055542	1008.471313	393.207886	1825.560669	834.769592	376.515320	1966.867188	983.805786	375.894775	2018.982178	853.354431	370.247711	1840.284668	946.292542	489.326508	1965.051392	676.022766	274.451660	1943.686279	667.072693	485.156647	1807.710815	724.111206	365.521484	1986.395630	508.219452	238.754150	1953.613647	414.021606	236.786026	2086.270996	449.143768	284.923767	2045.058716	269.034943	253.399704	1978.546387	166.564743	229.265717	2110.588135	200.333344	273.637054	2039.472778	42.667839	288.868378	2174.645752	74.929901	318.973389	1846.577393	507.969879	517.356567	1771.658936	453.176575	492.661987	1901.264893	401.904541	519.774170	1772.654785	274.639893	506.180908	1652.762451	261.922424	529.122070	1764.761108	179.145035	496.742767	1584.907227	111.186180	463.857147	1710.463989	46.988087	444.738586	2017.180054	358.648712	273.427765	2085.602051	50.607311	277.202576	1812.329468	341.961975	488.589111	1626.708252	86.616852	494.258148	2085.299072	49.547749	311.080933	2018.525879	355.245300	324.782104	1628.273560	91.153870	457.696503	1824.406128	337.670502	436.309296	1877.459132	614.104761	447.282642	1893.031655	620.628257	293.704786	
704	3.515000	1849.594604	1008.326355	391.991608	1832.407104	834.464783	375.999146	1973.498779	983.834717	374.739288	2025.918213	853.526123	369.404114	1846.557739	946.413879	488.141846	1972.521484	675.947815	274.196014	1951.260376	666.838684	484.391205	1814.741333	723.651855	365.535919	1994.124023	508.198853	238.944901	1961.004150	414.068298	237.127716	2093.710449	448.677399	285.160614	2051.849365	268.731720	254.353409	1983.848511	167.797241	229.160583	2115.723389	198.757599	275.262360	2040.913086	43.141869	288.920898	2176.752441	71.075462	320.567108	1855.022705	507.165375	517.308838	1780.494263	451.738312	493.175842	1910.627808	401.494720	519.818787	1780.268799	274.632690	506.873657	1659.981445	264.777161	529.033813	1770.202759	179.310318	497.730530	1589.447388	116.190872	464.216492	1711.734131	46.561016	445.048523	2024.241943	358.529846	273.779388	2087.986084	49.536690	278.199463	1822.096680	340.764404	489.278473	1630.088013	89.995186	494.628143	2087.219238	48.416096	312.068512	2025.579590	355.177063	325.137268	1632.005615	94.357231	458.061981	1833.964233	336.395782	436.957184	1885.142741	613.879380	446.586558	1900.642991	620.520324	293.345334	
705	3.520000	1856.127319	1008.276550	390.784332	1839.236450	834.256775	375.510284	1980.122070	983.945740	373.626160	2032.831421	853.772583	368.614746	1852.796021	946.638855	486.961578	1979.913086	676.031616	273.909546	1958.817139	666.665161	483.611267	1821.730591	723.260498	365.593475	2001.819458	508.336060	239.183640	1968.425415	414.282928	237.380798	2101.075928	448.418945	285.588043	2058.625244	268.588745	255.230438	1989.310913	169.362579	228.568497	2120.717529	197.318008	276.916077	2042.092041	43.710438	288.891571	2178.569580	67.451080	321.861603	1863.668335	506.372650	517.283142	1789.617065	450.210632	493.759003	1920.357788	401.177307	519.878662	1788.279907	274.680817	507.617310	1667.655518	267.752808	528.878601	1776.029419	179.582184	498.811127	1594.500977	121.412056	464.593811	1713.177124	46.173519	445.367310	2031.325073	358.571320	274.130463	2090.266602	48.677719	278.872070	1832.326050	339.535919	490.038391	1633.903564	93.562157	495.000122	2088.905518	47.457104	312.718994	2032.562378	355.234772	325.491943	1636.203735	97.713646	458.431519	1843.969360	335.094330	437.672913	1892.814812	613.709164	445.869028	1908.198077	620.539228	292.953538	
